<svg xmlns="http://www.w3.org/2000/svg" width="17.146" height="20" viewBox="0 0 17.146 20">
  <g id="组_37" data-name="组 37" transform="translate(-4476.427 -1370)">
    <path id="导航" d="M18.881,19.045l-3.36-7.94L11,.438a.689.689,0,0,0-.642-.425.7.7,0,0,0-.642.425L5.206,11.1l-3.36,7.94a.7.7,0,0,0,1.057.833L8,16.128l2.365-1.738,2.36,1.733,5.105,3.757a.7.7,0,0,0,.415.132.7.7,0,0,0,.64-.968ZM13.7,15.115l-2.925-2.152a.7.7,0,0,0-.413-.135.709.709,0,0,0-.415.135L7.011,15.127l-2.89,2.125,2.37-5.6a.017.017,0,0,1,.005-.01l.222-.533.09-.212a4.044,4.044,0,0,1,7.185.212H14l.068.168L16.6,17.252,13.7,15.115Z" transform="translate(4474.636 1369.988)" fill="#12e620"/>
  </g>
</svg>
